<?xml version="1.0" encoding="UTF-8" standalone="no"?><!--Generator: Adobe Illustrator 26.0.1, SVG Export Plug-In . SVG Version: 6.00 Build 0)--><svg xmlns="http://www.w3.org/2000/svg" xml:space="preserve" width="500" height="258.59961" x="0" y="0" version="1.1" viewBox="0 0 500 258.59961"><path d="M0 0v114.34961L14.900391 129.25 0 144.25v114.34961h500V0Zm16.199219 16.199219H241.475v91.150391l-17.12539 17.125c-2.6 2.7-2.5981 6.9235 0 9.52539l17.12539 17.17578v91.125H16.199219V152l17.951172-17.94922c2.599997-2.6 2.599997-7.00156 0-9.60156l-17.951172-17.89844ZM369.74805 39.984375c22.17679 0 41.32873 7.915147 54.2539 20.28125 3.48748 3.336634 6.82765 7.201082 8.84571 10.742187.28845.506154.50195 1.399717.50195 1.982422v48.033206c0 1.30035-.57624 2.53355-1.57422 3.36718l-48.67578 40.66016h46.50391c2.0691 0 3.74609 1.67699 3.74609 3.7461v40.7871c0 2.28032-1.84859 4.12891-4.12891 4.12891H313.17969c-2.28032 0-4.12891-1.84859-4.12891-4.12891v-32.44921c-.00034-1.34932.54405-2.64163 1.50977-3.58399l65.61133-64c2.9387-2.88461 4.15429-3.74951 4.15429-6.4668V91.685547c-.20073-3.914274-2.77509-9.304688-11.44922-9.304688-4.76395 0-11.96884 2.516374-12.02734 10.111329v8.406252c0 2.79999-1.43159 4.61398-4.92578 4.62109l-39.3418.08008c-2.77012.00563-4.48242-1.7293-4.48242-4.5293V72.203125c.01493-1.075183.06904-1.927434.9043-3.134766 1.93793-2.801211 6.8957-9.12169 15.3457-15.132812 16.77509-11.933376 34.97018-13.951172 45.39844-13.951172Z"/><path d="M200.58297 113.74267q.31155.72791.31155 1.03988.10386.31195.10386 1.03987 0 2.39171-2.90779 2.39171h-9.65802q-2.28469 0-3.11549-.62393-.83079-.7279-1.76544-3.63956l-3.5309-11.33464h-24.82006l-3.42704 11.54262q-.8308 2.70368-1.66159 3.43158-.72696.62393-3.21935.62393h-9.03491q-2.90779 0-2.90779-2.39171 0-1.55981.41539-2.07975l22.01613-66.032094q.6231-2.079751 1.55775-2.807663 1.03849-.727913 3.11548-.727913h12.04657q2.07699 0 3.01163.727913.93465.623925 1.6616 2.807663Zm-41.436-24.437074h16.82363l-8.51566-27.972651Z"/><path d="M90.454714 44.175q18.692936 0 25.754716 14.454269 1.45389 3.015639 1.97314 6.447228.6231 3.431589.6231 9.358879v14.03832q0 5.199376-.6231 8.630966-.51925 3.327598-1.97314 6.655208-6.23098 14.45426-23.158475 14.45426H69.165536q-2.700091 0-3.634738-.7279-.830797-.83191-.830797-3.22362V48.126527q0-2.391714.830797-3.119627.934647-.8319 3.634738-.8319Zm-8.723371 59.48087h8.515672q6.334828 0 8.723371-3.22361 2.388544-3.22361 2.388544-11.75059V73.707464q0-7.903054-2.596244-11.438631-2.596241-3.535576-8.515671-3.535576h-8.515672Z"/><path d="M156.24153 171.08081v39.294q0 2.3909-.93444 3.22253-.83062.72766-3.53011.72766h-7.06019q-2.69947 0-3.5301-.72766-.83061-.83163-.83061-3.22253v-66.11373q0-2.39091.83061-3.11857.93444-.83163 3.63394-.83163h6.43722q3.01098 0 4.15305.72768 1.24592.6237 2.49185 3.11856l20.5576 39.29401v-39.19005q0-2.39091.83062-3.11857.93444-.83163 3.63392-.83163h6.95636q2.6995 0 3.5301.83163.93444.72766.93444 3.11857v66.11373q0 2.3909-.93444 3.22253-.8306.72766-3.5301.72766h-6.43723q-3.01096 0-4.25687-.62371-1.14209-.72767-2.38801-3.22252Z"/><path d="M117.61391 152.57727c0 .55442-.03923 1.03953-.1777 1.45534-.13846.4158-.5496 1.07-1.03424 1.76301l-30.635643 43.14443h29.166813c1.59236 0 2.63085.31186 3.11549.93557.48463.55441.72693 1.76719.72693 3.63833v6.23714c0 1.87115-.2423 3.11857-.72693 3.74229-.48464.55442-1.52313.83162-3.11549.83162H69.254233c-1.800061 0-2.990444-.24255-3.613541-.72766-.760887-.76165-.930778-1.62859-.930778-3.22253v-8.5241c0-.97021.459566-2.04022 1.22113-3.01042l30.220248-43.14445H68.772801c-1.523128 0-2.561625-.2772-3.11549-.83162-.484631-.62369-.726947-1.87113-.726947-3.74228v-6.23715c0-1.87114.242316-3.08393.726947-3.63832.553865-.62372 1.592362-.93559 3.11549-.93559h44.305989c1.80005 0 3.07661.27721 3.63048.83163.62309.48511.90464 1.52464.90464 3.11857Z"/></svg>